<svg xmlns="http://www.w3.org/2000/svg" width="107.063" height="129.192" viewBox="0 0 107.063 129.192"><defs><style>.a{fill:#d4f9f5;}.b{fill:#333;}.c{fill:#00baa4;}.d{fill:#120d0c;}.e{fill:#75e7d9;}.f{fill:#008f7e;}.g{fill:#fff;}</style></defs><g transform="translate(-31.966)"><g transform="translate(97.625)"><g transform="translate(0 9.815)"><g transform="translate(0 0.762)"><path class="a" d="M205.2,41.878l-2.783-1.539c.13-.231,3.246-5.691,11.835-6.231,4.206-.265,6.26-2.879,8.864-6.193a29.228,29.228,0,0,1,5.739-5.985l1.871,2.575a26.65,26.65,0,0,0-5.107,5.378c-2.72,3.463-5.537,7.046-11.165,7.4C207.585,37.711,205.227,41.834,205.2,41.878Z" transform="translate(-202.42 -21.93)"/></g><g transform="translate(3.125)"><path class="b" d="M209.363,38.581l-.463-.256c.116-.207,2.884-5.054,10.76-5.551,4.8-.3,7.239-3.41,9.824-6.694a28.091,28.091,0,0,1,5.474-5.73l.314.429a27.872,27.872,0,0,0-5.373,5.628c-2.657,3.386-5.17,6.578-10.205,6.9C212.122,33.777,209.387,38.532,209.363,38.581Z" transform="translate(-208.9 -20.35)"/></g></g><g transform="translate(18.004)"><path class="b" d="M240.2,16.586l-.453-.27c.043-.077,4.635-7.625,12.679-9.487C260.223,5.021,262.649.048,262.673,0l.477.227c-.1.212-2.542,5.252-10.606,7.119C244.718,9.159,240.247,16.514,240.2,16.586Z" transform="translate(-239.75)"/></g><g transform="translate(7.384 18.708)"><g transform="translate(0 4.181)"><g transform="translate(0 0.637)"><path class="a" d="M219.876,59.733l-2.146-2.349c.159-.145,4.042-3.656,14.541-8.6l1.355,2.879C223.648,56.362,219.915,59.7,219.876,59.733Z" transform="translate(-217.73 -48.78)"/></g><g transform="translate(2.85)"><path class="b" d="M224,56.233l-.357-.391c.039-.034,3.892-3.521,14.213-8.382l.227.477C227.831,52.77,224.035,56.2,224,56.233Z" transform="translate(-223.64 -47.46)"/></g></g><g transform="translate(11.715)"><path class="b" d="M242.338,49.854l-.318-.424c.121-.092,3.01-2.219,9.824-4.9a15.2,15.2,0,0,0,7.321-5.734l.463.26a15.38,15.38,0,0,1-7.586,5.971A46.559,46.559,0,0,0,242.338,49.854Z" transform="translate(-242.02 -38.79)"/></g></g></g><g transform="translate(69.17 22.75)"><g transform="translate(24.77 14.3)"><path class="c" d="M194.78,90.84v4.239l24.288-14.02V76.82Z" transform="translate(-194.78 -76.82)"/></g><g transform="translate(0.487 14.3)"><path class="c" d="M144.43,76.82v4.239l24.283,14.02V90.84Z" transform="translate(-144.43 -76.82)"/></g><path class="a" d="M193,61.765l-24.288,14.02L144.43,61.765,168.713,47.74Z" transform="translate(-143.943 -47.465)"/><path class="b" d="M168.19,75.77l-.121-.068L143.42,61.47l24.77-14.3.121.068,24.65,14.232Zm-23.806-14.3L168.19,75.215,192,61.47,168.19,47.725Z" transform="translate(-143.42 -47.17)"/><g transform="translate(0.352 18.25)"><g transform="translate(0.135 0.231)"><g transform="translate(24.283)"><path class="b" d="M194.78,99.51v4.244l24.288-14.025V85.49Z" transform="translate(-194.78 -85.49)"/></g><path class="c" d="M144.43,85.49v4.239l24.283,14.025V99.51Z" transform="translate(-144.43 -85.49)"/></g><path class="b" d="M168.568,99.57l-24.418-14.1.265-.463,24.153,13.948L192.721,85.01l.265.463Z" transform="translate(-144.15 -85.01)"/></g><g transform="translate(0.352 22.499)"><g transform="translate(0.135 0.227)"><g transform="translate(24.283)"><path class="c" d="M194.78,108.315v4.239l24.288-14.02V94.29Z" transform="translate(-194.78 -94.29)"/></g><path class="c" d="M144.43,94.29v4.244l24.283,14.02v-4.239Z" transform="translate(-144.43 -94.29)"/></g><path class="b" d="M168.568,108.376l-24.418-14.1.265-.458,24.153,13.943L192.721,93.82l.265.458Z" transform="translate(-144.15 -93.82)"/></g><g transform="translate(0.352 26.762)"><g transform="translate(0.13 0.231)"><g transform="translate(24.288)"><path class="b" d="M194.78,117.16V121.4l24.288-14.025V103.14Z" transform="translate(-194.78 -103.14)"/></g><path class="c" d="M144.42,103.14v4.239L168.708,121.4V117.16Z" transform="translate(-144.42 -103.14)"/></g><path class="b" d="M168.568,117.22l-24.418-14.1.265-.463,24.153,13.948,24.153-13.948.265.463Z" transform="translate(-144.15 -102.66)"/></g><g transform="translate(0.352 31.011)"><g transform="translate(0.13 0.231)"><g transform="translate(24.288)"><path class="c" d="M194.78,125.97v4.239l24.288-14.02V111.95Z" transform="translate(-194.78 -111.95)"/></g><path class="c" d="M144.42,111.95v4.239l24.288,14.02V125.97Z" transform="translate(-144.42 -111.95)"/></g><path class="b" d="M168.568,126.025l-24.418-14.1.265-.458,24.153,13.948,24.153-13.948.265.458Z" transform="translate(-144.15 -111.47)"/></g><g transform="translate(0.352 35.352)"><g transform="translate(0.135 0.227)"><g transform="translate(24.283)"><path class="b" d="M194.78,134.965V139.2l24.288-14.025V120.94Z" transform="translate(-194.78 -120.94)"/></g><path class="c" d="M144.43,120.94v4.239L168.713,139.2v-4.239Z" transform="translate(-144.43 -120.94)"/></g><path class="b" d="M168.568,135.026l-24.418-14.1.265-.458,24.153,13.943,24.153-13.943.265.458Z" transform="translate(-144.15 -120.47)"/></g><g transform="translate(17.121 0.048)"><path class="b" d="M186.569,101.368l-7.649-4.413.265-.458,7.384,4.259L210.592,86.89V61.671L186.439,47.728l.265-.458,24.418,14.1V87.194Z" transform="translate(-178.92 -47.27)"/></g><g transform="translate(12.294 6.709)"><g transform="translate(0.434 0.294)"><g transform="translate(0 0)"><path class="c" d="M183.849,61.69c-6.241,1.138-11.551,3.849-14.039,7.659L191.161,74Z" transform="translate(-169.81 -61.69)"/></g><path class="b" d="M185,63.624l-1.148-1.934c-6.241,1.138-11.551,3.849-14.039,7.659l3.391.738C175.636,67.048,179.933,64.806,185,63.624Z" transform="translate(-169.81 -61.69)"/><g transform="translate(14.531 5.185)"><path class="d" d="M201.054,72.961c-1.485.858-1.485,2.247,0,3.1a5.955,5.955,0,0,0,3.931.516L202.53,72.44A4.865,4.865,0,0,0,201.054,72.961Z" transform="translate(-199.94 -72.44)"/></g><g transform="translate(5.479 6.933)"><path class="b" d="M188.072,79.487c1-.854.849-2.021-.463-2.778a5.926,5.926,0,0,0-5.373,0,2.045,2.045,0,0,0-1.066,1.273Z" transform="translate(-181.17 -76.065)"/></g></g><path class="b" d="M191.235,74.073,168.91,69.211l.212-.323c2.44-3.738,7.625-6.569,14.213-7.775l.183-.034Zm-21.452-5.218,20.372,4.437-6.906-11.623C177.08,62.826,172.2,65.43,169.783,68.855Z" transform="translate(-168.91 -61.08)"/></g></g><g transform="translate(71.07 59.235)"><g transform="translate(40.184)"><g transform="translate(0 4.037)"><g transform="translate(0 0.641)"><path class="a" d="M232.021,146.68l-1.336-2.884.666,1.442-.67-1.442a43.241,43.241,0,0,0,8.141-5.464,48.244,48.244,0,0,1,8.44-5.812l1.4,2.855a46.571,46.571,0,0,0-7.818,5.411A45.3,45.3,0,0,1,232.021,146.68Z" transform="translate(-230.68 -132.52)"/></g><g transform="translate(2.609)"><path class="b" d="M236.312,142.958l-.222-.482a44.442,44.442,0,0,0,8.426-5.643,47.689,47.689,0,0,1,8.18-5.643l.236.477a47.213,47.213,0,0,0-8.074,5.58A45.414,45.414,0,0,1,236.312,142.958Z" transform="translate(-236.09 -131.19)"/></g></g><g transform="translate(9.477)"><path class="b" d="M250.653,130.228l-.323-.42c.072-.058,7.278-5.6,13.755-6.988l.111.516C257.839,124.7,250.725,130.17,250.653,130.228Z" transform="translate(-250.33 -122.82)"/></g></g></g><g transform="translate(31.966 36.376)"><g transform="translate(43.979 47.096)"><g transform="translate(0 0)"><ellipse class="b" cx="9.347" cy="5.397" rx="9.347" ry="5.397" transform="matrix(0.5, -0.866, 0.866, 0.5, 0, 16.189)"/><g transform="translate(2.479 1.989)"><path class="b" d="M166.531,194.8a3.654,3.654,0,0,1-1.852-.477c-1.336-.772-2.069-2.373-2.069-4.509a14.919,14.919,0,0,1,6.742-11.676c1.852-1.066,3.6-1.235,4.939-.463s2.069,2.373,2.069,4.509a14.919,14.919,0,0,1-6.742,11.676A6.267,6.267,0,0,1,166.531,194.8Zm5.9-17.073a5.77,5.77,0,0,0-2.817.868,14.339,14.339,0,0,0-6.477,11.218c0,1.939.641,3.376,1.8,4.051s2.73.506,4.408-.463a14.347,14.347,0,0,0,6.477-11.218c0-1.939-.641-3.376-1.8-4.051A3.15,3.15,0,0,0,172.429,177.73Z" transform="translate(-162.61 -177.199)"/></g><g transform="translate(5.011 5.188)"><path class="c" d="M176.541,186.932a9.6,9.6,0,0,1-4.341,7.519c-2.4,1.384-4.341.26-4.341-2.508a9.6,9.6,0,0,1,4.341-7.519C174.6,183.04,176.541,184.164,176.541,186.932Z" transform="translate(-167.86 -183.831)"/></g></g></g><g transform="translate(20.864 51.56)"><path class="a" d="M119.538,182.33l-5.508,3.376-4.49,14.888,5.083,5.763.429.333,21.279-12.168s1.987-4.726.719-8.083S119.538,182.33,119.538,182.33Z" transform="translate(-109.54 -182.33)"/></g><g transform="translate(7.403 57.218)"><path class="b" d="M98,208.6a4.366,4.366,0,0,1-.323-1.346c0-.048,0-.1-.01-.145a27.492,27.492,0,0,1,.979-8.9l-9.26-3.791-7.755,2.546s1.215,3.651.6,6.3l8.816,6.627-3.825.617s8.614,6.906,14.382,4.91a8.821,8.821,0,0,0,1.5-.709l16.277-9.4a9.076,9.076,0,0,0,4.177-10.7c-.063-.183-.13-.362-.2-.55l-2.2,1.5a3.7,3.7,0,0,1,.212.473,5.049,5.049,0,0,1-2.267,6.13l-14.85,8.522a4.4,4.4,0,0,1-4.071.169A8.471,8.471,0,0,1,98,208.6Z" transform="translate(-81.63 -194.06)"/></g><g transform="translate(11.811 31.268)"><g transform="translate(0.27 0.269)"><path class="b" d="M91.927,140.961l-.048.029a1.1,1.1,0,0,0,.01,1.91l3.911,2.19a1.1,1.1,0,0,0,1.085,0h0a1.1,1.1,0,0,0,0-1.905l-3.863-2.214A1.073,1.073,0,0,0,91.927,140.961Z" transform="translate(-91.329 -140.814)"/></g><path class="b" d="M96.046,145.2a1.357,1.357,0,0,1-.666-.174l-3.911-2.19a1.365,1.365,0,0,1-.019-2.373l.048-.029a1.369,1.369,0,0,1,1.36,0l3.863,2.214a1.364,1.364,0,0,1,0,2.363A1.315,1.315,0,0,1,96.046,145.2Zm-4.278-4.3-.048.029a.835.835,0,0,0,0,1.452l3.911,2.19a.838.838,0,0,0,.825,0,.833.833,0,0,0,0-1.447L92.6,140.909a.812.812,0,0,0-.83,0Z" transform="translate(-90.77 -140.255)"/></g><g transform="translate(56.393 39.804)"><g transform="translate(0.266 0.264)"><path class="e" d="M184.241,160.527l4.968,3.1a1.028,1.028,0,0,0,1.375-.26h0a1.032,1.032,0,0,0-.265-1.481l-4.963-3.217a1.031,1.031,0,0,0-1.592.82l0,.111A1.043,1.043,0,0,0,184.241,160.527Z" transform="translate(-183.758 -158.503)"/></g><path class="b" d="M189.469,163.764a1.3,1.3,0,0,1-.685-.193l-4.968-3.1a1.3,1.3,0,0,1-.608-1.157l0-.111a1.3,1.3,0,0,1,2.006-1.037l4.963,3.217a1.3,1.3,0,0,1,.333,1.862A1.311,1.311,0,0,1,189.469,163.764Zm-5.373-3.747,4.968,3.1a.774.774,0,0,0,1.022-.193.748.748,0,0,0,.14-.593.759.759,0,0,0-.338-.506l-4.963-3.217a.774.774,0,0,0-.772-.039.761.761,0,0,0-.415.646l0,.111a.784.784,0,0,0,.362.69Z" transform="translate(-183.208 -157.954)"/></g><g transform="translate(52.188 43.55)"><path class="a" d="M176.067,175.038l5.648-3.251a1.327,1.327,0,0,0,.641-1.452c-.3-1.249-1.37-3.328-5.059-4.442C171.8,164.235,176.067,175.038,176.067,175.038Z" transform="translate(-174.49 -165.721)"/></g><g transform="translate(35.488 34.473)"><g transform="translate(0.258 0.323)"><path class="b" d="M164.219,151.6s-5.242,6.058-5.734,13.692c0,0,.622,2.064-12.588,9.651s1.529-18.245,1.529-18.245l9.11-9.13,4.013,1.91Z" transform="translate(-140.397 -147.57)"/></g><path class="b" d="M141.824,176.262a1.824,1.824,0,0,1-1.35-.5c-2.913-2.908,5.479-17.845,6.443-19.542l.043-.058,9.245-9.26,4.181,1.992,3.969,2.291-.212.241c-.053.058-5.175,6.067-5.667,13.5.068.526-.535,2.894-12.723,9.9A8.723,8.723,0,0,1,141.824,176.262Zm5.537-19.745c-2.58,4.529-8.729,16.658-6.511,18.872.685.685,2.291.333,4.64-1.018,12.467-7.162,12.472-9.327,12.467-9.347l-.014-.048,0-.048c.434-6.776,4.62-12.38,5.595-13.6l-3.4-1.963-3.825-1.818Z" transform="translate(-139.863 -146.9)"/></g><g transform="translate(26.516 25.529)"><g transform="translate(0.265 0.267)"><path class="c" d="M148,132.985c-3.255-2.961-10.176-3.984-10.842-4.075a.063.063,0,0,0-.068.043l-2.1,7.258c0,.01-.01.024-.019.029-.4.342-9.409,8.1-10.533,10.948-.121.309-.246.7-.376,1.157-1.442,5.532,1.283,6.25,1.881,6.342a.067.067,0,0,1,.043.106l-4.162,5.662a.078.078,0,0,0-.014.043c.188,1.346,1.572,8.247,10.239,7.09a.075.075,0,0,0,.053-.039l3.921-9.964s0,0,0-.014c.019-.188.656-6.328,10.244-12.5C153.414,140.479,151.423,136.1,148,132.985Z" transform="translate(-121.81 -128.908)"/></g><path class="b" d="M129.883,167.7a8.3,8.3,0,0,1-8.609-7.447l-.014-.106.077-.13,3.984-5.421a2.77,2.77,0,0,1-1.567-1.167c-.776-1.177-.849-3.01-.217-5.435a11.958,11.958,0,0,1,.386-1.186c1.124-2.85,9.766-10.326,10.562-11.011l2.083-7.2a.33.33,0,0,1,.357-.236c.776.106,7.683,1.143,10.982,4.143h0c2.272,2.064,3.337,4.148,3.164,6.183-.183,2.214-1.842,4.341-4.924,6.328-9.453,6.087-10.1,12.052-10.123,12.3L136,157.4l-3.926,9.964a.338.338,0,0,1-.265.207A15.48,15.48,0,0,1,129.883,167.7Zm-8.074-7.437c.227,1.5,1.678,7.823,9.815,6.8l3.868-9.824c.063-.569.96-6.612,10.36-12.665,2.937-1.891,4.514-3.882,4.683-5.923.154-1.866-.854-3.8-3-5.749h0c-3-2.735-9.212-3.791-10.524-3.984l-2.074,7.162-.077.082c-3.236,2.773-9.578,8.6-10.466,10.847-.111.285-.236.666-.367,1.133-.584,2.238-.531,3.969.15,5.006a2.229,2.229,0,0,0,1.514,1,.329.329,0,0,1,.256.2.346.346,0,0,1-.039.328Z" transform="translate(-121.26 -128.355)"/></g><g transform="translate(23.438 26.747)"><path class="f" d="M120.478,149.366c.125-.453.256-.849.376-1.158a12.843,12.843,0,0,1,2.329-3.159l.087-1.095a1.832,1.832,0,0,1,1.36-1.625,23.349,23.349,0,0,0,6.9-3.116c4.3-2.846,2.981-7.881,2.981-7.881l-5.556-.453s-9.342,4.9-12.163,9.467S115.1,147.7,115.1,147.7l1.693,11.372,5.387-3.3a.055.055,0,0,0-.014-.1C121.337,155.462,119.157,154.435,120.478,149.366Z" transform="translate(-114.878 -130.88)"/></g><g transform="translate(23.167 26.476)"><path class="b" d="M116.3,159.214l-1.751-11.739c-.125-.342-1-3.135,1.727-7.562a15.489,15.489,0,0,1,2.932-3.284l.352.4a14.912,14.912,0,0,0-2.831,3.169c-2.706,4.384-1.683,7.09-1.674,7.119l.014.058,1.635,10.972,4.669-2.86a2.827,2.827,0,0,1-1.307-1.172c-.7-1.182-.743-2.966-.135-5.3a11.957,11.957,0,0,1,.386-1.186,12.41,12.41,0,0,1,2.32-3.173l.082-1a2.105,2.105,0,0,1,1.558-1.862,23.209,23.209,0,0,0,6.824-3.077,7.073,7.073,0,0,0,2.908-7.413l-5.286-.434a60.478,60.478,0,0,0-7.037,4.452l-.318-.424a61.711,61.711,0,0,1,7.172-4.534l.068-.034,5.821.477.048.183c.014.053,1.321,5.252-3.091,8.17A23.739,23.739,0,0,1,124.4,142.3a1.559,1.559,0,0,0-1.162,1.389l-.1,1.182-.063.068a12.407,12.407,0,0,0-2.281,3.082c-.111.285-.236.666-.367,1.133-.569,2.19-.545,3.839.082,4.9a2.3,2.3,0,0,0,1.4,1.076.325.325,0,0,1,.241.27.341.341,0,0,1-.154.333Z" transform="translate(-114.316 -130.32)"/></g><g transform="translate(33.514 59.263)"><g transform="translate(0.269 0.318)"><path class="c" d="M138.456,203.19l-1.746,2.185a1.754,1.754,0,0,0-.159,1.948h0a1.75,1.75,0,0,0,1.524.892h.111a1.72,1.72,0,0,0,.545-.087c1.268-.42,5.841-2.595,7.008-4.553,1.109-1.866-.1-3.173-2.026-4.616l-.159.082A15.5,15.5,0,0,0,138.456,203.19Z" transform="translate(-136.328 -198.96)"/></g><path class="b" d="M137.9,208.139h-.111a2.019,2.019,0,0,1-1.756-1.027,2,2,0,0,1,.183-2.243l1.746-2.185a15.748,15.748,0,0,1,5.18-4.225l.309-.159.13.1c1.765,1.321,3.386,2.792,2.093,4.963-1.254,2.117-6.043,4.3-7.152,4.673A1.891,1.891,0,0,1,137.9,208.139Zm.477-5.127-1.746,2.185a1.484,1.484,0,0,0,1.157,2.411h.111a1.5,1.5,0,0,0,.463-.072c1.268-.42,5.744-2.556,6.863-4.437.945-1.592.053-2.744-1.828-4.172l-.014,0a15.192,15.192,0,0,0-5.006,4.08Z" transform="translate(-135.77 -198.3)"/></g><g transform="translate(36.808 50.755)"><path class="a" d="M143.16,182.772s1.095,6,.83,7.881-1.186,3.26.333,3.665c.83.222,3.579-1.567,3.641-2.7.125-2.315-.193-10.292-.193-10.292Z" transform="translate(-142.89 -181.007)"/><path class="b" d="M144.187,194.227a1.032,1.032,0,0,1-.217-.024c-1.35-.362-1.08-1.442-.791-2.59a13.023,13.023,0,0,0,.285-1.341c.256-1.813-.815-7.741-.825-7.8l-.039-.207,5.107-1.6.014.314c.014.328.318,8.016.193,10.316-.043.8-1.09,1.645-1.539,1.968A4.648,4.648,0,0,1,144.187,194.227Zm-1.042-11.638c.193,1.095,1.037,6.033.791,7.746a13.164,13.164,0,0,1-.294,1.389c-.313,1.259-.41,1.78.449,2.006a3.534,3.534,0,0,0,2-.873c.791-.574,1.317-1.206,1.341-1.606.111-2.016-.125-8.455-.183-9.954Z" transform="translate(-142.6 -180.66)"/></g><g transform="translate(37.001 50.721)"><path class="b" d="M144.4,194.215a.833.833,0,0,1-.227-.029l.135-.511a3.614,3.614,0,0,0,1.977-.868c.786-.569,1.307-1.191,1.326-1.587.111-2-.121-8.363-.178-9.921l-4.273,1.341-.159-.506,4.934-1.543.014.347c.014.328.318,8.016.193,10.316-.043.81-1.095,1.659-1.543,1.982A4.63,4.63,0,0,1,144.4,194.215Z" transform="translate(-143 -180.59)"/></g><g transform="translate(34.93 30.639)"><path class="f" d="M154.407,139.182s.492,7.34-2.966,9.7c-2.122,1.447-3.858,2.648-4.886,3.357a2.188,2.188,0,0,0-.936,1.939l.367,5.778a1.711,1.711,0,0,1-1.215,1.741,6.707,6.707,0,0,1-3.212.251,1.706,1.706,0,0,1-1.341-1.3c-.473-2.083-1.558-7.1-1.51-8.816.068-2.185,7.639-10.982,7.639-10.982l2.826-1.9Z" transform="translate(-138.707 -138.95)"/></g><g transform="translate(39.48 30.407)"><path class="b" d="M148.2,162.049l-.058-.526a7.467,7.467,0,0,0,1.428-.3,1.448,1.448,0,0,0,1.027-1.471l-.367-5.778a2.47,2.47,0,0,1,1.051-2.175c1.027-.714,2.768-1.915,4.886-3.357,2.956-2.016,2.908-7.963,2.865-9.226l-4.91-.212-2.759,1.852-.294-.439,2.9-1.948,5.561.241.014.236c.019.3.458,7.519-3.082,9.935-2.117,1.447-3.853,2.643-4.886,3.357a1.907,1.907,0,0,0-.825,1.707l.367,5.778a1.971,1.971,0,0,1-1.4,2.011A8.684,8.684,0,0,1,148.2,162.049Z" transform="translate(-148.14 -138.47)"/></g><g transform="translate(14.054 17.974)"><path class="a" d="M109.055,113.23a36.614,36.614,0,0,0-2.387,5.435s-5.874,4.471-8.305,7.8c0,0-3.974,2.093-1.813,4.08,2.32,2.132,3.805-1.283,4.114-2.7,0,0,6.931-5.04,8.918-7.07s4.5-6.853,4.5-6.853Z" transform="translate(-95.672 -112.97)"/><path class="b" d="M97.75,131.191a2.409,2.409,0,0,1-1.606-.748,1.883,1.883,0,0,1-.709-1.664c.188-1.437,2.17-2.585,2.522-2.778,2.334-3.169,7.6-7.254,8.257-7.76a37.628,37.628,0,0,1,2.383-5.406l.082-.145,5.532.772-.159.3c-.1.2-2.551,4.876-4.538,6.911a111.521,111.521,0,0,1-8.874,7.041c-.212.878-.979,2.956-2.363,3.4A2.009,2.009,0,0,1,97.75,131.191Zm11.189-17.98a36.3,36.3,0,0,0-2.291,5.242l-.024.072-.063.048c-.058.043-5.874,4.49-8.257,7.75l-.034.043-.048.024c-.019.01-2.151,1.148-2.315,2.445a1.41,1.41,0,0,0,.555,1.244,1.686,1.686,0,0,0,1.654.559c1.08-.342,1.833-2.1,2.059-3.13l.019-.092.072-.053c.068-.048,6.935-5.05,8.889-7.041a35.781,35.781,0,0,0,4.3-6.492Z" transform="translate(-95.42 -112.69)"/></g><g transform="translate(14.054 17.959)"><path class="b" d="M97.706,131.2a2.436,2.436,0,0,1-1.625-.752,1.826,1.826,0,0,1-.661-1.37,3.323,3.323,0,0,1,1.23-2.214l.362.386a2.952,2.952,0,0,0-1.061,1.823,1.293,1.293,0,0,0,.492.979,1.661,1.661,0,0,0,1.635.555c1.013-.323,1.8-2.011,2.04-3.111l.019-.1.082-.058c.068-.048,6.935-5.05,8.884-7.041a35.358,35.358,0,0,0,4.273-6.458l-4.654-.651.072-.526,5.4.752-.174.333c-.1.2-2.551,4.881-4.543,6.916A112.091,112.091,0,0,1,100.6,127.7c-.212.887-.984,2.961-2.373,3.4A1.509,1.509,0,0,1,97.706,131.2Z" transform="translate(-95.42 -112.66)"/></g><g transform="translate(26.779 12.428)"><path class="f" d="M124.161,102.406s-1.452,2.489-2.257,4.312a1.1,1.1,0,0,0,.019.955c.367.7,1.346,1.905,3.854,2.392a1.123,1.123,0,0,0,1.066-.367,5.782,5.782,0,0,0,.94-6.5C125.786,99.2,124.161,102.406,124.161,102.406Z" transform="translate(-121.805 -101.191)"/></g><g transform="translate(28.894 12.167)"><path class="b" d="M128.259,110.069a1.644,1.644,0,0,1-.265-.024,8.072,8.072,0,0,1-1.481-.424l.193-.492a7.964,7.964,0,0,0,1.389.4.861.861,0,0,0,.815-.28,5.544,5.544,0,0,0,.9-6.207c-.6-1.215-1.235-1.857-1.823-1.857h0c-.757,0-1.317,1.056-1.321,1.071l-.473-.241c.029-.053.7-1.36,1.794-1.36h0c.81,0,1.582.728,2.291,2.151a6.054,6.054,0,0,1-.974,6.791A1.381,1.381,0,0,1,128.259,110.069Z" transform="translate(-126.19 -100.65)"/></g><g transform="translate(37.083 6.225)"><path class="e" d="M144.028,88.33l6.607,1.813a7.71,7.71,0,0,1,3.69,2.247c2.059,2.595,5.595,7.567,6.631,12.212,1.49,6.68-10.543,3.289-10.543,3.289l-3.26-14.734-3.984-1.587Z" transform="translate(-143.17 -88.33)"/></g><g transform="translate(36.76 5.902)"><path class="b" d="M155.941,108.673a25.182,25.182,0,0,1-5.947-.873l-.154-.043L146.575,93l-4.075-1.62.989-3.723,6.1,1.674-.14.511-5.585-1.534-.733,2.754,3.9,1.548,3.26,14.715c1.056.275,7.336,1.8,9.477-.222a2.781,2.781,0,0,0,.584-2.792c-.8-3.574-3.12-7.36-4.929-9.906-.227-.318-.854-1.153-1.158-1.563l-.1-.135.424-.318.1.135c.309.415.94,1.254,1.167,1.577,1.838,2.585,4.2,6.439,5.016,10.1a3.262,3.262,0,0,1-.738,3.294A6.184,6.184,0,0,1,155.941,108.673Z" transform="translate(-142.5 -87.66)"/></g><g transform="translate(31.681 8.905)"><g transform="translate(0.266 0.249)"><path class="c" d="M132.52,100.092a9.1,9.1,0,0,0,2.344,5.657,10.886,10.886,0,0,1,2.358,6.569s.453,2.035,5.609,4.982,8.479.227,9.028-.6c0,0,1.534-10.519-5.421-17.912s-12.327-3.207-12.327-3.207Z" transform="translate(-132.52 -94.402)"/></g><path class="c" d="M147.046,118.625a9.319,9.319,0,0,1-4.635-1.365c-5.194-2.971-5.715-5.064-5.734-5.156l0-.029v-.029a10.693,10.693,0,0,0-2.3-6.39,9.271,9.271,0,0,1-2.407-5.836l.014-.082,1.616-4.587.063-.048c.058-.043,5.643-4.249,12.684,3.231,6.959,7.4,5.5,18.028,5.488,18.134l-.043.111A6.07,6.07,0,0,1,147.046,118.625Zm-9.848-6.612c.072.222.81,2.122,5.474,4.784,4.857,2.778,8.025.371,8.643-.468.106-.868,1.153-10.712-5.358-17.633-6.328-6.728-11.314-3.632-11.913-3.222l-1.548,4.394a8.984,8.984,0,0,0,2.276,5.435A11.011,11.011,0,0,1,137.2,112.013Z" transform="translate(-131.969 -93.886)"/></g><g transform="translate(25.923 0.225)"><path class="f" d="M120.03,81.89a6.9,6.9,0,0,1,6.8-5.995c6.135-.212,8.016,6.68,4.62,11.758s-8.426,3.911-9.646,2.9-.878-5.16-.878-5.16Z" transform="translate(-120.03 -75.89)"/></g><g transform="translate(25.356 6.225)"><path class="a" d="M119.421,88.33a5.76,5.76,0,0,0,.256,5.392c1.2,1.794,5.763,1.92,8.049,0a2.959,2.959,0,0,0,.839-4.1,1.134,1.134,0,0,0-1.172-.535,17.716,17.716,0,0,1-4.21.241A9.208,9.208,0,0,1,119.421,88.33Z" transform="translate(-118.854 -88.33)"/></g><g transform="translate(25.961 6.702)"><path class="b" d="M124,95.893a7.662,7.662,0,0,1-1.08-.072,3.927,3.927,0,0,1-2.807-1.437l.439-.294a3.517,3.517,0,0,0,2.44,1.206,7.058,7.058,0,0,0,5.218-1.259,2.7,2.7,0,0,0,.786-3.767.879.879,0,0,0-.9-.41l-.092-.521a1.405,1.405,0,0,1,1.442.661,3.244,3.244,0,0,1-.9,4.442A7.278,7.278,0,0,1,124,95.893Z" transform="translate(-120.11 -89.319)"/></g><g transform="translate(36.647 10.243)"><path class="b" d="M145.692,107.685a4.078,4.078,0,0,1-3.255-3.034,7.14,7.14,0,0,1,2.03-6.882,4.206,4.206,0,0,1,4.032-.921,3.507,3.507,0,0,1,2.141,1.891l.367.733a8.649,8.649,0,0,0-1.92-1.186c-.5-.092-3.8.227-3.931,3.41s1.563,3.887,1.563,3.887Z" transform="translate(-142.265 -96.66)"/></g><g transform="translate(46.656 48.257)"><g transform="translate(0.265 0.27)"><path class="a" d="M163.57,179.185v.053a1.031,1.031,0,0,0,1.563.887l3.627-2.161a1.038,1.038,0,0,0,.506-.887h0a1.033,1.033,0,0,0-1.558-.892l-3.627,2.112A1.015,1.015,0,0,0,163.57,179.185Z" transform="translate(-163.57 -176.041)"/></g><path class="b" d="M164.317,180.25a1.307,1.307,0,0,1-1.3-1.3V178.9a1.3,1.3,0,0,1,.646-1.124l3.627-2.112a1.3,1.3,0,0,1,1.953,1.124,1.315,1.315,0,0,1-.632,1.119l-3.627,2.161A1.306,1.306,0,0,1,164.317,180.25Zm3.627-4.239a.739.739,0,0,0-.386.106l-3.627,2.112a.765.765,0,0,0-.381.666v.053a.771.771,0,0,0,1.167.661l3.627-2.161a.775.775,0,0,0,.376-.661.754.754,0,0,0-.386-.666A.774.774,0,0,0,167.944,176.011Z" transform="translate(-163.02 -175.481)"/></g><g transform="translate(31.956 43.528)"><g transform="translate(0.27 0.269)"><path class="b" d="M133.7,166.381l-.048.029a1.1,1.1,0,0,0,.01,1.91l3.911,2.19a1.1,1.1,0,0,0,1.085,0h0a1.1,1.1,0,0,0,0-1.905l-3.863-2.214A1.073,1.073,0,0,0,133.7,166.381Z" transform="translate(-133.099 -166.234)"/></g><path class="b" d="M137.816,170.621a1.358,1.358,0,0,1-.666-.174l-3.911-2.19a1.365,1.365,0,0,1-.019-2.373l.048-.029a1.369,1.369,0,0,1,1.36,0l3.863,2.214a1.364,1.364,0,0,1,0,2.363A1.315,1.315,0,0,1,137.816,170.621Zm-4.278-4.3-.048.029a.835.835,0,0,0,0,1.452l3.911,2.19a.838.838,0,0,0,.825,0,.833.833,0,0,0,0-1.447l-3.863-2.214a.823.823,0,0,0-.83,0Z" transform="translate(-132.54 -165.675)"/></g><g transform="translate(7.008 42.826)"><g transform="translate(0.267 0.294)"><path class="c" d="M97.886,168.013l1.288,1.572a5.646,5.646,0,0,1,1.167,4.7l-1.669,8.2a4.575,4.575,0,0,1-2.2,3.058l-1.375.8a10.848,10.848,0,0,1-7.876,1.186h0a7.435,7.435,0,0,1-4.741-3.458l-.3-.511a5.8,5.8,0,0,1-.666-4.259h0a17.47,17.47,0,0,1,2-5.006l2.624-4.413a11.165,11.165,0,0,1,4.625-4.3l1.519-.757Z" transform="translate(-81.365 -164.83)"/></g><path class="b" d="M89.372,187.761a10.958,10.958,0,0,1-2.493-.285,7.739,7.739,0,0,1-4.91-3.579l-.3-.511a6.044,6.044,0,0,1-.7-4.452A17.544,17.544,0,0,1,83,173.851l2.624-4.413a11.414,11.414,0,0,1,4.736-4.4L92,164.22l5.807,3.313,1.288,1.572a5.867,5.867,0,0,1,1.22,4.919l-1.669,8.2a4.846,4.846,0,0,1-2.329,3.236l-1.375.8A11.165,11.165,0,0,1,89.372,187.761Zm2.609-22.943-1.394.695a10.883,10.883,0,0,0-4.514,4.2l-2.624,4.413a17.052,17.052,0,0,0-1.973,4.929,5.512,5.512,0,0,0,.637,4.061l.3.511a7.2,7.2,0,0,0,4.572,3.333,10.6,10.6,0,0,0,7.683-1.158l1.375-.8a4.32,4.32,0,0,0,2.074-2.884l1.669-8.2a5.349,5.349,0,0,0-1.114-4.48L97.416,167.9Z" transform="translate(-80.812 -164.22)"/></g><g transform="translate(14.423 50.069)"><g transform="translate(0.27 0.268)"><path class="a" d="M97.211,179.941l-.039.024a.926.926,0,0,0,.092,1.611l2.344,1.167a.928.928,0,0,0,.916-.053h0a.927.927,0,0,0-.082-1.606l-2.31-1.191A.925.925,0,0,0,97.211,179.941Z" transform="translate(-96.747 -179.792)"/></g><path class="b" d="M99.723,182.817a1.145,1.145,0,0,1-.531-.125l-2.344-1.167a1.2,1.2,0,0,1-.116-2.074l.183.2-.145-.222a1.187,1.187,0,0,1,1.186-.058l2.305,1.191a1.184,1.184,0,0,1,.651,1,1.17,1.17,0,0,1-.545,1.061A1.153,1.153,0,0,1,99.723,182.817Zm-2.662-2.942-.039.024a.664.664,0,0,0,.063,1.153l2.344,1.167a.677.677,0,0,0,.656-.039.666.666,0,0,0-.058-1.153l-2.305-1.191A.674.674,0,0,0,97.061,179.875Z" transform="translate(-96.186 -179.237)"/></g><g transform="translate(15.033 45.667)"><g transform="translate(0.27 0.333)"><path class="f" d="M107.347,185.558l1.669-8.2a5.646,5.646,0,0,0-1.167-4.7l-1.288-1.572-.5-.28-.632.743-7.422,17.1a2.376,2.376,0,0,0,2.537,1.987,10.857,10.857,0,0,0,3.217-1.22l1.375-.8A4.558,4.558,0,0,0,107.347,185.558Z" transform="translate(-98.01 -170.8)"/></g><path class="b" d="M100.1,190.545a2.664,2.664,0,0,1-2.643-2.209l-.01-.077,7.49-17.237.772-.912.762.453,1.288,1.572a5.867,5.867,0,0,1,1.22,4.919l-1.669,8.2a4.855,4.855,0,0,1-2.325,3.236l-1.375.8a10.967,10.967,0,0,1-3.3,1.249C100.242,190.54,100.175,190.545,100.1,190.545ZM98,188.321a2.1,2.1,0,0,0,2.247,1.693,10.563,10.563,0,0,0,3.1-1.186l1.375-.8a4.342,4.342,0,0,0,2.074-2.884l1.669-8.2a5.367,5.367,0,0,0-1.109-4.48L106.1,170.93l-.26-.15-.463.545Z" transform="translate(-97.45 -170.11)"/></g><g transform="translate(7.003 43.304)"><g transform="translate(0.269 0.347)"><path class="f" d="M91.117,165.93l-.367.183a11.223,11.223,0,0,0-4.625,4.3L83.5,174.823a17.251,17.251,0,0,0-2,5.006,5.664,5.664,0,0,0-.135,1.5c.5.318,1.211.386,1.963-.757,1.413-2.165,8.218-13.914,8.218-13.914Z" transform="translate(-81.36 -165.93)"/></g><path class="b" d="M81.712,181.425a1.484,1.484,0,0,1-.781-.241l-.121-.072,0-.14a6.046,6.046,0,0,1,.145-1.572,17.6,17.6,0,0,1,2.035-5.083l2.624-4.413a11.431,11.431,0,0,1,4.731-4.4l.593-.294.622,1.08-.077.13c-.068.116-6.824,11.782-8.223,13.924C82.711,181.179,82.166,181.425,81.712,181.425Zm-.376-.622c.27.14.815.265,1.476-.748,1.312-2.011,7.379-12.467,8.131-13.769l-.222-.381-.145.072a10.883,10.883,0,0,0-4.514,4.2l-2.624,4.413a17.052,17.052,0,0,0-1.973,4.929A5.4,5.4,0,0,0,81.336,180.8Z" transform="translate(-80.801 -165.21)"/></g><g transform="translate(15.416 33.472)"><g transform="translate(0.27 0.274)"><path class="b" d="M98.928,146.8a2.616,2.616,0,0,0,.656,2.614,1.754,1.754,0,0,1,.41,1.384c-.106,1.389-1.717,5.16,2.436,7.557a5.9,5.9,0,0,0,6.5-.285,2.219,2.219,0,0,1,2.161-.193c1.683.767,4.664,1.905,5.812.95,1.635-1.36,2.4-2.662,1.143-3.656S103,146.26,103,146.26s-2.947-2.069-3.94.188C99.01,146.569,98.966,146.685,98.928,146.8Z" transform="translate(-98.805 -145.394)"/></g><path class="b" d="M105.134,159.171a6.162,6.162,0,0,1-3.125-.883c-3.656-2.112-3.034-5.3-2.7-7.008a7.278,7.278,0,0,0,.13-.8A1.491,1.491,0,0,0,99.1,149.3a2.869,2.869,0,0,1-.714-2.884,3.722,3.722,0,0,1,.145-.376,1.9,1.9,0,0,1,1.23-1.138c1.346-.376,3.034.791,3.106.839.545.309,13.793,7.929,15.052,8.922a1.682,1.682,0,0,1,.728,1.317c.01.8-.6,1.7-1.866,2.754-1.2.994-3.974.048-6.091-.916a1.934,1.934,0,0,0-1.9.174A6.617,6.617,0,0,1,105.134,159.171Zm-4.794-13.808a1.661,1.661,0,0,0-.439.058,1.361,1.361,0,0,0-.887.839,2.878,2.878,0,0,0-.125.333h0a2.338,2.338,0,0,0,.6,2.349,1.993,1.993,0,0,1,.482,1.582,8.056,8.056,0,0,1-.14.863c-.328,1.693-.883,4.524,2.445,6.448a5.689,5.689,0,0,0,6.217-.275,2.48,2.48,0,0,1,2.416-.217c2.764,1.259,4.779,1.616,5.532.989,1.119-.931,1.683-1.717,1.674-2.339a1.179,1.179,0,0,0-.526-.907c-1.23-.969-14.869-8.811-15.009-8.889A4.719,4.719,0,0,0,100.34,145.363Z" transform="translate(-98.244 -144.825)"/></g><g transform="translate(19.634 35.628)"><path class="f" d="M106.99,151.983s2.643-3.526,5.985-2.5a4.032,4.032,0,0,1,2.117,6.549c-1.722,2.055-5.628,2.518-5.628,2.518Z" transform="translate(-106.99 -149.294)"/></g><g transform="translate(19.335 35.534)"><path class="b" d="M108.97,158.7l-2.6-6.9.087-.116a8.6,8.6,0,0,1,2.146-1.92,5.3,5.3,0,0,1,1.577-.666l.125.516a4.961,4.961,0,0,0-1.423.6,8.32,8.32,0,0,0-1.91,1.674l2.349,6.226c.81-.13,3.839-.709,5.252-2.4a3.778,3.778,0,0,0-.14-5.054l.376-.371a4.264,4.264,0,0,1,.174,5.768c-1.77,2.112-5.638,2.59-5.8,2.609Z" transform="translate(-106.37 -149.1)"/></g><g transform="translate(18.374 36.19)"><g transform="translate(0.265 0.268)"><path class="g" d="M111.84,156.7c-.994,2.19-3.241,3.3-5.021,2.5s-2.416-3.236-1.423-5.421,3.241-3.3,5.021-2.5S112.834,154.515,111.84,156.7Z" transform="translate(-104.928 -151.017)"/></g><path class="g" d="M107.76,159.436a3.208,3.208,0,0,1-1.331-.285,3.489,3.489,0,0,1-1.9-2.368,5.341,5.341,0,0,1,2.682-5.9,3.472,3.472,0,0,1,3.034-.13c1.91.868,2.609,3.458,1.558,5.773A4.679,4.679,0,0,1,107.76,159.436Zm1.143-8.445a3.265,3.265,0,0,0-1.457.362,4.815,4.815,0,0,0-2.407,5.3,2.96,2.96,0,0,0,1.606,2.021c1.645.743,3.738-.318,4.669-2.368s.352-4.326-1.293-5.074A2.772,2.772,0,0,0,108.9,150.991Z" transform="translate(-104.377 -150.461)"/></g><g transform="translate(31.038 21.682)"><path class="a" d="M145.254,121.49a78.369,78.369,0,0,1,.719,9.771,3.072,3.072,0,0,1-.916,2.088c-1.268,1.244-3.743,3.646-5.3,4.948a26.845,26.845,0,0,0-4.336,5.324s-.014,3.868-2.643,3.381-1.688-4.157,0-5.021a77.473,77.473,0,0,1,5.46-8.189,16.764,16.764,0,0,1,2.9-2.754,1.266,1.266,0,0,0,.424-1.481,18.831,18.831,0,0,1-1.051-8.609Z" transform="translate(-130.899 -120.675)"/><path class="b" d="M132.958,146.993a2.487,2.487,0,0,1-.487-.048,2.079,2.079,0,0,1-1.8-1.838,3.839,3.839,0,0,1,1.669-3.6,76.556,76.556,0,0,1,5.45-8.165,16.754,16.754,0,0,1,2.942-2.792,1.033,1.033,0,0,0,.347-1.2,19.048,19.048,0,0,1-1.066-8.72l.024-.246,5.175.593.024.188a77.881,77.881,0,0,1,.719,9.81,3.306,3.306,0,0,1-.989,2.252c-1.317,1.3-3.762,3.665-5.31,4.963A26.12,26.12,0,0,0,135.4,143.4a4.675,4.675,0,0,1-1.177,3.149A1.955,1.955,0,0,1,132.958,146.993Zm7.5-26.073a18.409,18.409,0,0,0,1.061,8.252,1.522,1.522,0,0,1-.506,1.765,16.505,16.505,0,0,0-2.855,2.71,77.349,77.349,0,0,0-5.44,8.16l-.034.063-.063.034a3.328,3.328,0,0,0-1.476,3.14,1.609,1.609,0,0,0,1.413,1.432,1.55,1.55,0,0,0,1.355-.3c.984-.815,1-2.826,1-2.85v-.068l.034-.058a26.749,26.749,0,0,1,4.384-5.387c1.538-1.283,3.969-3.641,5.281-4.934a2.807,2.807,0,0,0,.844-1.924,75.473,75.473,0,0,0-.69-9.545Z" transform="translate(-130.636 -120.38)"/></g><g transform="translate(31.014 21.697)"><path class="b" d="M132.932,147.032a2.533,2.533,0,0,1-.492-.048,2.158,2.158,0,0,1-1.461-.892,2.748,2.748,0,0,1-.323-2.088l.521.1a2.246,2.246,0,0,0,.241,1.688,1.65,1.65,0,0,0,1.119.67,1.541,1.541,0,0,0,1.336-.289c.974-.805,1-2.812,1-2.831v-.072l.039-.063a26.818,26.818,0,0,1,4.389-5.392c1.534-1.283,3.969-3.641,5.281-4.934a2.809,2.809,0,0,0,.839-1.905,74.117,74.117,0,0,0-.69-9.52l-4.538-.521.058-.526,4.948.569.029.2a77.9,77.9,0,0,1,.719,9.815,3.329,3.329,0,0,1-1,2.267c-1.317,1.3-3.762,3.665-5.315,4.963a26.021,26.021,0,0,0-4.239,5.2,4.694,4.694,0,0,1-1.186,3.159A1.95,1.95,0,0,1,132.932,147.032Z" transform="translate(-130.585 -120.41)"/></g><g transform="translate(38.942 12.933)"><path class="f" d="M149.188,113.182a1.2,1.2,0,0,1-1.008-.825c-.719-2.219-2.6-9.019.883-10,3.854-1.09,5.165,5.72,5.2,8.927a1.205,1.205,0,0,1-.68,1.095A8.036,8.036,0,0,1,149.188,113.182Z" transform="translate(-147.025 -102.238)"/></g><g transform="translate(39.871 12.667)"><path class="b" d="M151.9,113.157l-.058-.526a8,8,0,0,0,2.628-.776A.934.934,0,0,0,155,111c-.029-2.436-.805-6.849-2.754-8.305a2.281,2.281,0,0,0-2.108-.371,4.449,4.449,0,0,0-.892.5l-.294-.444a4.687,4.687,0,0,1,1.042-.564,2.823,2.823,0,0,1,2.571.453c2.117,1.582,2.937,6.082,2.971,8.72a1.466,1.466,0,0,1-.825,1.336A8.432,8.432,0,0,1,151.9,113.157Z" transform="translate(-148.95 -101.687)"/></g><g transform="translate(12.879 21.844)"><path class="g" d="M98.678,124.025c.487,2.151-.362,4.172-1.9,4.519s-3.173-1.114-3.661-3.26.362-4.172,1.9-4.519S98.191,121.879,98.678,124.025Z" transform="translate(-92.985 -120.714)"/></g><g transform="translate(12.752 21.581)"><path class="b" d="M96.178,128.581a2.937,2.937,0,0,1-1.939-.815,5.132,5.132,0,0,1-1.519-2.706l.516-.116a4.6,4.6,0,0,0,1.355,2.426,2.058,2.058,0,0,0,3.506-.8,4.911,4.911,0,0,0-1.177-5.2,2.237,2.237,0,0,0-1.987-.632l-.116-.516a2.761,2.761,0,0,1,2.46.757,5.453,5.453,0,0,1,1.317,5.8,2.507,2.507,0,0,1-2.416,1.794Z" transform="translate(-92.72 -120.169)"/></g><g transform="translate(37.081 37.102)"><path class="g" d="M148.806,157.507c-1.095,1.915-3.087,2.831-4.452,2.05s-1.587-2.966-.5-4.876,3.087-2.831,4.452-2.05S149.9,155.592,148.806,157.507Z" transform="translate(-143.166 -152.352)"/></g><g transform="translate(36.815 37.145)"><path class="b" d="M145.149,160.147a2.435,2.435,0,0,1-1.211-.313,2.757,2.757,0,0,1-1.3-2.219,5.149,5.149,0,0,1,.709-3.024l.463.265a4.62,4.62,0,0,0-.641,2.706,2.061,2.061,0,0,0,3.125,1.784,4.638,4.638,0,0,0,2.006-1.929c1.018-1.784.839-3.81-.4-4.514l.265-.463c1.49.854,1.756,3.2.593,5.242a5.124,5.124,0,0,1-2.243,2.146A3.36,3.36,0,0,1,145.149,160.147Z" transform="translate(-142.615 -152.44)"/></g><g transform="translate(25.629)"><path class="b" d="M124.542,91.448q-.34,0-.695-.029l.048-.526c4.852.424,7.326-4.119,7.355-4.167,2.575-5.513.424-8.421-1.09-9.66a4.684,4.684,0,0,0-2.291-1c-6.164-.955-7.62,4.326-7.857,5.44a9.985,9.985,0,0,0,4.124.916l.024.531a10.388,10.388,0,0,1-4.567-1.056l-.174-.087.029-.193c.01-.072,1.244-7.191,8.5-6.072a5.308,5.308,0,0,1,2.546,1.119c1.63,1.341,3.96,4.456,1.225,10.307C131.689,87.02,129.283,91.448,124.542,91.448Z" transform="translate(-119.42 -75.423)"/></g><g transform="translate(53.63 45.17)"><path class="b" d="M177.745,177.009l-.265-.458,5.648-3.251c.029-.019.82-.5.535-1.114a9.278,9.278,0,0,0-1.794-2.739l.386-.367a9.823,9.823,0,0,1,1.891,2.879,1.455,1.455,0,0,1-.748,1.794Z" transform="translate(-177.48 -169.08)"/></g><g transform="translate(28.237 46.491)"><path class="b" d="M127.6,177.178a3.11,3.11,0,0,1-2.088-1.225,5.024,5.024,0,0,1-.477-4.133l.516.116a4.537,4.537,0,0,0,.381,3.7,2.618,2.618,0,0,0,1.712,1.018Z" transform="translate(-124.828 -171.82)"/></g><g transform="translate(31.194 39.045)"><path class="b" d="M131.346,158.835l-.386-.367,1.968-2.088.386.367Z" transform="translate(-130.96 -156.38)"/></g><g transform="translate(24.955 57.145)"><g transform="translate(0 0)"><rect class="b" width="2.011" height="0.531" transform="translate(0 1.107) rotate(-33.382)"/></g></g><g transform="translate(0.673 71.231)"><g transform="translate(0.316 0.162)"><path class="a" d="M82.63,226.629l.666-.661L79.9,224.1a3.216,3.216,0,0,0-.776-.429l0,0h0a4.982,4.982,0,0,0-4.181.69A14.607,14.607,0,0,0,68.33,235.8c0,2.021.685,3.458,1.794,4.181v0l.039.019a2.56,2.56,0,0,0,.251.14l3.661,2.069a13.631,13.631,0,0,0,1.968-1.7c.068-.116.627-1.293,1.394-2.908a15.114,15.114,0,0,0,4.075-8.614C82.177,227.589,82.63,226.629,82.63,226.629Z" transform="translate(-68.33 -223.452)"/></g><g transform="translate(1.284 0)"><g transform="translate(0)"><ellipse class="b" cx="9.347" cy="5.397" rx="9.347" ry="5.397" transform="matrix(0.5, -0.866, 0.866, 0.5, 0, 16.189)"/><g transform="translate(2.476 1.987)"><path class="b" d="M79.391,244.842a3.654,3.654,0,0,1-1.852-.477c-1.336-.772-2.069-2.373-2.069-4.509a14.919,14.919,0,0,1,6.742-11.676c1.852-1.071,3.6-1.235,4.939-.463s2.069,2.373,2.069,4.509A14.919,14.919,0,0,1,82.478,243.9,6.3,6.3,0,0,1,79.391,244.842Zm5.9-17.073a5.77,5.77,0,0,0-2.817.868A14.347,14.347,0,0,0,76,239.855c0,1.939.641,3.376,1.8,4.051s2.73.506,4.408-.463a14.347,14.347,0,0,0,6.477-11.218c0-1.939-.641-3.376-1.8-4.051A3.163,3.163,0,0,0,85.294,227.768Z" transform="translate(-75.47 -227.236)"/></g></g><g transform="translate(5.008 5.185)"><path class="c" d="M89.4,236.964a9.6,9.6,0,0,1-4.341,7.519c-2.4,1.384-4.341.26-4.341-2.508a9.6,9.6,0,0,1,4.341-7.519C87.458,233.077,89.4,234.2,89.4,236.964Z" transform="translate(-80.72 -233.866)"/></g></g><g transform="translate(0 8.886)"><path class="b" d="M74.058,252.02l-4.225-2.329a2.007,2.007,0,0,1-.391-.275c-3.111-2.86-1.186-7.673-1.1-7.876l.492.2c-.019.048-1.866,4.673.969,7.283a1.485,1.485,0,0,0,.285.2l4.225,2.329Z" transform="translate(-67.676 -241.54)"/></g></g><g transform="translate(0 64.353)"><g transform="translate(0.179)"><g transform="translate(0 0.253)"><path class="a" d="M78.664,210.065c-.082-.053-.174-.106-.265-.154l-.029-.014h0a4.85,4.85,0,0,0-1.563-.473c-5.242-.719-9.106,7.664-10.027,9.868-.174.415-.222,1.018.169,1.244l5.426,3.149,5.865-6.506c.164.164.313.323.444.473a.581.581,0,0,0,.994-.2,14.32,14.32,0,0,0,.569-2.5l.41-.458,2.947.2.545-1.447Z" transform="translate(-66.651 -209.38)"/><g transform="translate(5.157 2.88)"><g transform="translate(0.264 0.269)"><path class="c" d="M78.19,227.065c-.391-.227-.342-.83-.169-1.244.921-2.2,4.789-10.586,10.027-9.868,4.688.641,3.583,5.778,2.865,8.03a.581.581,0,0,1-.994.2c-1.408-1.659-5.165-4.567-10.552,2.8C79.371,226.978,79,227.543,78.19,227.065Z" transform="translate(-77.891 -215.91)"/></g><path class="b" d="M78.523,227.234a1.483,1.483,0,0,1-.752-.231h0a1.249,1.249,0,0,1-.28-1.577c1.061-2.537,4.919-10.774,10.311-10.027a4.051,4.051,0,0,1,3.053,1.775c1.235,1.963.55,4.972.029,6.593a.846.846,0,0,1-1.447.289,4.751,4.751,0,0,0-3.757-1.891c-2.016.072-4.162,1.645-6.376,4.673A.918.918,0,0,1,78.523,227.234Zm-.482-.685c.555.323.786.053.825,0,2.32-3.173,4.6-4.818,6.791-4.9a5.433,5.433,0,0,1,4.181,2.074.305.305,0,0,0,.3.1.311.311,0,0,0,.241-.212c.492-1.534,1.148-4.37.029-6.149a3.537,3.537,0,0,0-2.677-1.534c-5.117-.695-9.019,7.963-9.747,9.708-.145.347-.164.786.058.916Z" transform="translate(-77.343 -215.351)"/></g></g><g transform="translate(3.621)"><path class="b" d="M87.476,212.961l-5.349-3.106c-4.167-1.958-7.495,2.831-7.529,2.879l-.439-.3c.034-.053,3.617-5.214,8.209-3.053l5.373,3.12Z" transform="translate(-74.16 -208.854)"/></g></g><g transform="translate(0 8.404)"><path class="b" d="M72.048,232.666l-5.074-2.942a1.436,1.436,0,0,1-.574-1.809l.7-1.635.487.207-.7,1.635a.9.9,0,0,0,.333,1.129l5.093,2.956Z" transform="translate(-66.281 -226.28)"/></g></g><g transform="translate(26.127 6.529)"><path class="d" d="M121.021,93.378A4.468,4.468,0,0,1,121,88.96l.482.222a3.962,3.962,0,0,0-.024,3.887Z" transform="translate(-120.453 -88.96)"/></g><g transform="translate(22.344 36.508)"><path class="c" d="M113.01,152.967l-.4-.347a10.5,10.5,0,0,1,1.625-1.5l.318.424A9.9,9.9,0,0,0,113.01,152.967Z" transform="translate(-112.61 -151.12)"/></g><g transform="translate(19.974 39.083)"><path class="c" d="M107.707,161.891a9.251,9.251,0,0,1,1.548-5.431l.444.289a8.822,8.822,0,0,0-1.461,5.093Z" transform="translate(-107.695 -156.46)"/></g><g transform="translate(30.851 51.337)"><g transform="translate(0 0)"><rect class="b" width="0.531" height="6.453" transform="matrix(0.523, -0.852, 0.852, 0.523, 0, 0.452)"/></g></g><g transform="translate(26.511 12.205)"><path class="b" d="M121.66,102.693a7.732,7.732,0,0,1-.41-1.91l.526-.053a7.385,7.385,0,0,0,.357,1.731Z" transform="translate(-121.25 -100.73)"/></g></g><g transform="translate(55.126 110.681)"><path class="c" d="M114.343,234.115H114.3l.014-.362a4.285,4.285,0,0,0,4.447-4.263l.362.029A4.686,4.686,0,0,1,114.343,234.115Z" transform="translate(-114.3 -229.49)"/></g><g transform="translate(78.415 99.979)"><path class="c" d="M163.294,210.854l-.333-.15a2.54,2.54,0,0,0-.371-3.125l.227-.28A2.927,2.927,0,0,1,163.294,210.854Z" transform="translate(-162.59 -207.3)"/></g></g></svg>